<?xml version="1.0" encoding="utf-8"?>
<!-- Generator: Adobe Illustrator 16.0.0, SVG Export Plug-In . SVG Version: 6.00 Build 0)  -->
<!DOCTYPE svg PUBLIC "-//W3C//DTD SVG 1.1//EN" "http://www.w3.org/Graphics/SVG/1.1/DTD/svg11.dtd">
<svg version="1.1" id="Layer_1" xmlns="http://www.w3.org/2000/svg" xmlns:xlink="http://www.w3.org/1999/xlink" x="0px" y="0px"
	 width="272.5px" height="31.5px" viewBox="0 0 272.5 31.5" enable-background="new 0 0 272.5 31.5" xml:space="preserve">
<g>
	<path fill="#444444" d="M14.06,3.069c-3.411,0-6.096,1.092-8.055,3.274c-1.959,2.183-2.939,5.171-2.939,8.967
		c0,3.881,0.923,6.896,2.771,9.042c1.849,2.146,4.49,3.217,7.926,3.217c2.281,0,4.378-0.289,6.288-0.873v1.674
		c-1.799,0.633-4.043,0.949-6.734,0.949c-3.82,0-6.828-1.234-9.022-3.702C2.098,23.148,1,19.701,1,15.273
		c0-2.765,0.524-5.202,1.572-7.311C3.62,5.854,5.126,4.226,7.093,3.078c1.964-1.146,4.25-1.72,6.855-1.72
		c2.654,0,5.029,0.496,7.125,1.488L20.31,4.558C18.326,3.566,16.242,3.069,14.06,3.069z"/>
	<path fill="#444444" d="M42.374,18.809c0,3.299-0.799,5.875-2.399,7.729s-3.808,2.782-6.623,2.782
		c-1.773,0-3.336-0.428-4.688-1.284c-1.352-0.854-2.388-2.084-3.107-3.685c-0.719-1.6-1.079-3.447-1.079-5.543
		c0-3.298,0.799-5.87,2.4-7.711c1.6-1.841,3.795-2.762,6.586-2.762c2.777,0,4.957,0.934,6.539,2.8
		C41.583,13.001,42.374,15.559,42.374,18.809z M26.412,18.809c0,2.777,0.611,4.944,1.833,6.502c1.222,1.557,2.949,2.334,5.181,2.334
		c2.232,0,3.959-0.777,5.181-2.334c1.222-1.558,1.832-3.725,1.832-6.502c0-2.791-0.618-4.955-1.851-6.493
		c-1.234-1.538-2.967-2.307-5.2-2.307c-2.232,0-3.953,0.766-5.162,2.297C27.017,13.837,26.412,16.005,26.412,18.809z"/>
	<path fill="#444444" d="M55.377,8.334c1.463,0,2.729,0.267,3.795,0.8c1.066,0.533,2.021,1.444,2.865,2.733h0.112
		c-0.075-1.562-0.112-3.093-0.112-4.594V0h1.823v28.947h-1.209l-0.465-3.088h-0.148c-1.538,2.307-3.746,3.459-6.623,3.459
		c-2.791,0-4.923-0.867-6.4-2.604c-1.476-1.736-2.213-4.268-2.213-7.591c0-3.497,0.731-6.17,2.195-8.018
		C50.46,9.259,52.587,8.334,55.377,8.334z M55.377,10.009c-2.207,0-3.867,0.775-4.977,2.325c-1.11,1.551-1.665,3.802-1.665,6.753
		c0,5.729,2.226,8.595,6.678,8.595c2.283,0,3.957-0.662,5.023-1.99s1.6-3.516,1.6-6.567v-0.315c0-3.125-0.524-5.374-1.572-6.744
		C59.417,10.694,57.722,10.009,55.377,10.009z"/>
	<path fill="#444444" d="M78.817,29.318c-2.939,0-5.231-0.904-6.874-2.717c-1.644-1.81-2.465-4.347-2.465-7.607
		c0-3.224,0.793-5.807,2.381-7.748c1.587-1.941,3.727-2.912,6.418-2.912c2.38,0,4.26,0.831,5.636,2.493
		c1.377,1.662,2.065,3.919,2.065,6.771v1.488H71.413c0.025,2.779,0.673,4.898,1.944,6.361c1.271,1.465,3.091,2.197,5.46,2.197
		c1.153,0,2.167-0.082,3.042-0.242c0.875-0.162,1.981-0.51,3.32-1.043v1.675c-1.142,0.497-2.195,0.834-3.163,1.015
		C81.05,29.229,79.983,29.318,78.817,29.318z M78.278,9.971c-1.947,0-3.511,0.642-4.688,1.926c-1.179,1.284-1.867,3.135-2.065,5.553
		h12.502c0-2.344-0.509-4.176-1.526-5.497C81.484,10.631,80.076,9.971,78.278,9.971z"/>
	<path fill="#444444" d="M99.522,8.334c0.856,0,1.773,0.087,2.754,0.261l-0.353,1.767c-0.845-0.21-1.719-0.316-2.625-0.316
		c-1.723,0-3.138,0.732-4.239,2.195c-1.105,1.463-1.657,3.312-1.657,5.543v11.163h-1.841V8.725h1.562l0.187,3.646h0.13
		c0.831-1.488,1.719-2.533,2.661-3.135C97.042,8.635,98.185,8.334,99.522,8.334z"/>
	<path fill="#444444" d="M121.865,21.934c0,2.27-0.832,4.068-2.502,5.396c-1.666,1.327-3.885,1.989-6.649,1.989
		c-3.323,0-5.872-0.366-7.647-1.098v-1.896c1.959,0.83,4.46,1.246,7.498,1.246c2.231,0,4.003-0.512,5.312-1.534
		c1.308-1.022,1.962-2.366,1.962-4.028c0-1.029-0.217-1.882-0.65-2.559c-0.436-0.676-1.143-1.293-2.121-1.852
		c-0.98-0.558-2.419-1.158-4.315-1.805c-2.778-0.955-4.698-1.987-5.758-3.098c-1.062-1.109-1.592-2.588-1.592-4.437
		c0-2.034,0.797-3.692,2.391-4.976c1.594-1.285,3.644-1.926,6.15-1.926c2.553,0,4.952,0.483,7.198,1.451l-0.688,1.637
		c-2.259-0.942-4.416-1.414-6.477-1.414c-2.007,0-3.607,0.465-4.799,1.396c-1.188,0.93-1.784,2.195-1.784,3.795
		c0,1.004,0.182,1.829,0.547,2.474c0.366,0.645,0.966,1.224,1.796,1.739c0.832,0.515,2.257,1.132,4.28,1.852
		c2.119,0.731,3.713,1.442,4.779,2.13c1.066,0.688,1.846,1.471,2.336,2.344C121.62,19.637,121.865,20.693,121.865,21.934z"/>
	<path fill="#444444" d="M132.488,27.682c1.165,0,2.184-0.099,3.051-0.297v1.488c-0.894,0.298-1.923,0.447-3.09,0.447
		c-1.784,0-3.103-0.479-3.952-1.434c-0.85-0.955-1.274-2.455-1.274-4.5V10.326h-2.995v-1.08l2.995-0.837l0.931-4.577h0.948v4.893
		h5.934v1.6h-5.934v12.799c0,1.551,0.273,2.696,0.819,3.44C130.466,27.311,131.321,27.682,132.488,27.682z"/>
	<path fill="#444444" d="M152.189,28.947l-0.465-3.2h-0.148c-1.018,1.303-2.062,2.224-3.135,2.763
		c-1.073,0.54-2.342,0.809-3.805,0.809c-1.984,0-3.529-0.508-4.633-1.524c-1.105-1.017-1.654-2.425-1.654-4.224
		c0-1.973,0.82-3.504,2.463-4.596c1.645-1.091,4.021-1.668,7.136-1.729l3.852-0.112v-1.339c0-1.922-0.393-3.373-1.174-4.353
		c-0.778-0.979-2.041-1.47-3.774-1.47c-1.873,0-3.813,0.521-5.824,1.563l-0.688-1.6c2.219-1.042,4.414-1.563,6.584-1.563
		c2.223,0,3.881,0.577,4.977,1.73c1.1,1.153,1.648,2.952,1.648,5.396v13.45H152.189z M144.75,27.646
		c2.156,0,3.857-0.619,5.105-1.854c1.246-1.232,1.869-2.947,1.869-5.145v-1.99l-3.535,0.148c-2.84,0.137-4.863,0.582-6.074,1.332
		c-1.208,0.75-1.812,1.918-1.812,3.506c0,1.266,0.389,2.248,1.163,2.949S143.335,27.646,144.75,27.646z"/>
	<path fill="#444444" d="M168.059,8.334c0.854,0,1.773,0.087,2.752,0.261l-0.353,1.767c-0.847-0.21-1.72-0.316-2.623-0.316
		c-1.726,0-3.14,0.732-4.243,2.195c-1.104,1.463-1.654,3.312-1.654,5.543v11.163h-1.842V8.725h1.562l0.185,3.646h0.132
		c0.83-1.488,1.719-2.533,2.659-3.135C165.578,8.635,166.719,8.334,168.059,8.334z"/>
	<path fill="#444444" d="M180.262,27.682c1.168,0,2.184-0.099,3.053-0.297v1.488c-0.894,0.298-1.924,0.447-3.09,0.447
		c-1.785,0-3.102-0.479-3.951-1.434c-0.853-0.955-1.275-2.455-1.275-4.5V10.326h-2.996v-1.08l2.996-0.837l0.93-4.577h0.948v4.893
		h5.937v1.6h-5.937v12.799c0,1.551,0.272,2.696,0.821,3.44C178.238,27.311,179.098,27.682,180.262,27.682z"/>
	<path fill="#444444" d="M195.852,29.318c-2.938,0-5.23-0.904-6.873-2.717c-1.645-1.81-2.465-4.347-2.465-7.607
		c0-3.224,0.793-5.807,2.379-7.748c1.588-1.941,3.728-2.912,6.418-2.912c2.383,0,4.264,0.831,5.639,2.493
		c1.377,1.662,2.064,3.919,2.064,6.771v1.488h-14.564c0.021,2.779,0.673,4.898,1.941,6.361c1.271,1.465,3.092,2.197,5.461,2.197
		c1.153,0,2.168-0.082,3.041-0.242c0.873-0.162,1.98-0.51,3.321-1.043v1.675c-1.142,0.497-2.196,0.834-3.161,1.015
		C198.084,29.229,197.018,29.318,195.852,29.318z M195.311,9.971c-1.947,0-3.508,0.642-4.688,1.926s-1.866,3.135-2.064,5.553h12.502
		c0-2.344-0.508-4.176-1.526-5.497C198.518,10.631,197.109,9.971,195.311,9.971z"/>
	<path fill="#444444" d="M216.557,8.334c0.855,0,1.775,0.087,2.754,0.261l-0.354,1.767c-0.844-0.21-1.717-0.316-2.623-0.316
		c-1.723,0-3.139,0.732-4.241,2.195c-1.103,1.463-1.653,3.312-1.653,5.543v11.163h-1.842V8.725h1.561l0.188,3.646h0.131
		c0.83-1.488,1.719-2.533,2.66-3.135C214.078,8.635,215.219,8.334,216.557,8.334z"/>
	<path fill="#444444" d="M244.389,28.947h-5.154l-8.539-12.316l-2.621,2.141v10.176h-4.447V1.749h4.447v12.985
		c1.215-1.488,2.423-2.92,3.628-4.297l7.348-8.688h5.06c-4.748,5.581-8.152,9.556-10.213,11.924L244.389,28.947z"/>
	<path fill="#444444" d="M251.885,28.947h-4.371l0.008-14.562h4.373L251.885,28.947z"/>
	<path fill="#444444" d="M265.801,25.784c1.064,0,2.133-0.167,3.199-0.503v3.294c-0.484,0.211-1.105,0.388-1.87,0.53
		c-0.762,0.142-1.552,0.213-2.371,0.213c-4.142,0-6.214-2.182-6.214-6.549V11.684h-2.295l0.266-2.027c0,0,1.68-0.859,2.233-1.508
		c0.747-0.875,1.489-4.353,1.489-4.353h2.697v4.576h5.86v3.312h-5.86v11.011c0,1.056,0.262,1.834,0.789,2.336
		C264.253,25.533,264.945,25.784,265.801,25.784z"/>
</g>
<path fill="#EA1B1B" d="M245.448,7.359c0-1.355,0.371-2.398,1.112-3.127c0.744-0.731,1.801-1.096,3.178-1.096
	c1.329,0,2.367,0.366,3.111,1.096c0.738,0.732,1.111,1.772,1.111,3.127c0,1.288-0.373,2.304-1.111,3.044
	c-0.744,0.746-1.782,1.115-3.111,1.115c-1.377,0-2.434-0.369-3.178-1.115C245.819,9.663,245.448,8.646,245.448,7.359z"/>
</svg>
